<svg version="1.1" id="Layer_1" xmlns="http://www.w3.org/2000/svg" xmlns:xlink="http://www.w3.org/1999/xlink" x="0px" y="0px"
	 width="100%" viewBox="0 0 512 512" enable-background="new 0 0 512 512" xml:space="preserve">
<path fill="#000000" opacity="1.000000" stroke="none" 
	d="
M239.000000,513.000000 
	C159.352646,513.000000 80.205292,513.000000 1.028970,513.000000 
	C1.028970,342.394287 1.028970,171.788574 1.028970,1.091425 
	C171.564041,1.091425 342.128143,1.091425 512.846130,1.091425 
	C512.846130,171.666565 512.846130,342.333252 512.846130,513.000000 
	C421.788544,513.000000 330.644257,513.000000 239.000000,513.000000 
M199.230957,278.985535 
	C185.494385,286.822021 173.473175,296.617126 163.443588,308.968201 
	C147.302109,328.845795 138.498611,351.459320 135.977417,376.994202 
	C112.485764,376.996246 88.994110,376.992310 65.502457,377.004242 
	C58.983650,377.007568 57.010220,378.876526 57.000481,384.958893 
	C56.990700,391.067932 58.983891,392.995239 65.438385,392.995514 
	C193.227005,393.001038 321.015625,393.001495 448.804230,392.993866 
	C454.871735,392.993500 456.957794,390.970154 456.999542,385.204437 
	C457.044128,379.046661 455.022034,377.010315 448.724945,377.006104 
	C426.732635,376.991364 404.740326,377.000336 382.748016,377.000275 
	C380.957275,377.000275 379.166534,377.000275 377.584259,377.000275 
	C376.674042,371.395905 375.937012,366.258759 374.994720,361.159515 
	C370.874878,338.864594 360.741608,319.558716 345.434296,302.988800 
	C336.726654,293.562958 326.656586,285.902161 315.371613,279.550171 
	C300.829010,271.364563 285.342010,266.496552 268.940491,265.199127 
	C258.778656,264.395264 248.388870,265.050964 238.217545,266.138123 
	C224.649109,267.588409 211.870636,272.104675 199.230957,278.985535 
M275.500000,409.000000 
	C218.870102,409.000000 162.240189,408.997589 105.610291,409.003174 
	C98.749382,409.003845 96.780914,411.046234 97.000458,417.845764 
	C97.175743,423.274536 99.284508,424.997864 105.820908,424.998016 
	C206.588821,425.000793 307.356750,425.000092 408.124664,424.999146 
	C409.290497,424.999115 410.745941,425.427002 411.564056,424.890015 
	C413.484772,423.629425 415.978638,422.226044 416.680725,420.309143 
	C419.107910,413.682281 415.471924,409.004669 408.414368,409.003540 
	C364.442902,408.996521 320.471466,409.000000 275.500000,409.000000 
M292.056000,113.355057 
	C280.585083,97.114128 269.114166,80.873207 257.070770,63.821789 
	C243.246613,83.165794 230.033829,101.654327 216.168961,121.055283 
	C225.091904,121.055283 232.937943,121.055283 241.216858,121.055283 
	C241.216858,134.694885 241.216858,147.748093 241.216858,160.642456 
	C252.065140,160.642456 262.450806,160.642456 273.284607,160.642456 
	C273.284607,147.235550 273.284607,134.182831 273.284607,120.707832 
	C281.438721,120.707832 289.135010,120.707832 297.697052,120.707832 
	C295.601196,118.001625 294.038818,115.984222 292.056000,113.355057 
M282.500000,441.000000 
	C242.206223,441.000000 201.912445,440.997040 161.618668,441.003021 
	C155.041336,441.003998 153.035873,442.845062 153.000137,448.833374 
	C152.963531,454.970886 154.986542,456.993958 161.303558,456.994781 
	C225.074265,457.003265 288.844971,457.002930 352.615692,456.995331 
	C359.017212,456.994568 361.021881,455.028717 360.999939,448.902496 
	C360.978424,442.908844 358.936249,441.006012 352.432312,441.003510 
	C329.454865,440.994598 306.477448,441.000000 282.500000,441.000000 
M331.945496,238.337784 
	C328.601593,244.063599 325.037140,249.674728 321.981445,255.550430 
	C319.393005,260.527649 320.757446,266.031738 324.603790,267.815125 
	C330.549164,270.571716 335.341919,267.392120 337.590240,263.025299 
	C340.546295,257.283936 344.047852,251.824844 347.271820,246.219635 
	C351.552673,238.776978 355.928741,231.384064 359.997650,223.826431 
	C362.424774,219.318207 360.832275,212.834732 357.316986,211.108032 
	C352.320740,208.653900 347.741302,210.378708 344.694916,215.725189 
	C340.526947,223.039978 336.275940,230.307449 331.945496,238.337784 
M83.325706,293.797302 
	C88.670425,297.152863 93.945572,300.626007 99.375328,303.837830 
	C108.716431,309.363220 118.048172,314.921509 127.594154,320.076538 
	C132.592194,322.775543 137.784088,321.132996 140.002411,316.990936 
	C142.159531,312.963165 140.957169,307.837646 136.732635,305.360870 
	C123.309029,297.490814 109.915039,289.539581 96.141907,282.321350 
	C93.256905,280.809357 88.229271,281.162048 85.214821,282.685394 
	C81.472946,284.576355 81.373703,289.066681 83.325706,293.797302 
M182.055466,238.340897 
	C177.548477,230.276657 173.408417,221.968582 168.310516,214.296997 
	C166.784164,212.000061 162.560898,210.367767 159.612350,210.425644 
	C155.833160,210.499847 152.408417,213.176880 152.757706,217.745697 
	C152.976532,220.607956 153.763687,223.674072 155.166458,226.156830 
	C162.262146,238.715637 169.671539,251.096756 176.910614,263.575165 
	C179.850510,268.642853 184.880920,270.365845 189.633713,267.760437 
	C193.158295,265.828308 194.578430,260.230621 192.199615,255.740311 
	C189.176193,250.033249 185.736893,244.546494 182.055466,238.340897 
M424.623596,298.057587 
	C430.436829,295.298157 432.853821,291.643433 431.714508,287.335419 
	C430.097076,281.219574 423.819214,278.727875 417.590546,282.213043 
	C404.151337,289.732819 390.814026,297.439728 377.547333,305.260590 
	C371.564301,308.787628 371.136200,317.973358 377.154755,320.126190 
	C380.609528,321.362000 385.779907,320.533386 389.167053,318.732635 
	C401.017761,312.432220 412.428925,305.305054 424.623596,298.057587 
M256.565308,185.000107 
	C250.603500,185.502029 249.020981,187.093124 249.010376,192.875519 
	C248.980743,209.011063 248.977554,225.146744 249.012512,241.282257 
	C249.024643,246.882477 251.163651,248.950027 256.741180,248.999893 
	C262.726257,249.053406 264.974243,247.016937 264.987183,241.289169 
	C265.023560,225.153656 265.018951,209.017975 264.989838,192.882431 
	C264.979462,187.124023 263.359406,185.494095 256.565308,185.000107 
z"/>
<path fill="#F6CB43" opacity="1.000000" stroke="none" 
	d="
M136.902481,376.951141 
	C138.498611,351.459320 147.302109,328.845795 163.443588,308.968201 
	C173.473175,296.617126 185.494385,286.822021 199.847198,279.136963 
	C201.744095,279.108398 203.036484,278.988007 204.303574,278.738831 
	C213.904907,276.850861 223.431717,273.878998 233.113052,273.242889 
	C256.489441,271.706970 278.780853,276.368164 299.306793,288.129578 
	C331.970215,306.845764 351.877991,334.725586 359.466980,371.579468 
	C360.422363,376.219025 358.801392,377.048645 354.740997,377.044250 
	C282.128235,376.965424 209.515335,376.966919 136.902481,376.951141 
z"/>
<path fill="#FAB03C" opacity="1.000000" stroke="none" 
	d="
M136.439941,376.972656 
	C209.515335,376.966919 282.128235,376.965424 354.740997,377.044250 
	C358.801392,377.048645 360.422363,376.219025 359.466980,371.579468 
	C351.877991,334.725586 331.970215,306.845764 299.306793,288.129578 
	C278.780853,276.368164 256.489441,271.706970 233.113052,273.242889 
	C223.431717,273.878998 213.904907,276.850861 204.303574,278.738831 
	C203.036484,278.988007 201.744095,279.108398 200.208740,279.079559 
	C211.870636,272.104675 224.649109,267.588409 238.217545,266.138123 
	C248.388870,265.050964 258.778656,264.395264 268.940491,265.199127 
	C285.342010,266.496552 300.829010,271.364563 315.371613,279.550171 
	C326.656586,285.902161 336.726654,293.562958 345.434296,302.988800 
	C360.741608,319.558716 370.874878,338.864594 374.994720,361.159515 
	C375.937012,366.258759 376.674042,371.395905 377.584259,377.000275 
	C379.166534,377.000275 380.957275,377.000275 382.748016,377.000275 
	C404.740326,377.000336 426.732635,376.991364 448.724945,377.006104 
	C455.022034,377.010315 457.044128,379.046661 456.999542,385.204437 
	C456.957794,390.970154 454.871735,392.993500 448.804230,392.993866 
	C321.015625,393.001495 193.227005,393.001038 65.438385,392.995514 
	C58.983891,392.995239 56.990700,391.067932 57.000481,384.958893 
	C57.010220,378.876526 58.983650,377.007568 65.502457,377.004242 
	C88.994110,376.992310 112.485764,376.996246 136.439941,376.972656 
z"/>
<path fill="#FAB03C" opacity="1.000000" stroke="none" 
	d="
M276.000000,409.000000 
	C320.471466,409.000000 364.442902,408.996521 408.414368,409.003540 
	C415.471924,409.004669 419.107910,413.682281 416.680725,420.309143 
	C415.978638,422.226044 413.484772,423.629425 411.564056,424.890015 
	C410.745941,425.427002 409.290497,424.999115 408.124664,424.999146 
	C307.356750,425.000092 206.588821,425.000793 105.820908,424.998016 
	C99.284508,424.997864 97.175743,423.274536 97.000458,417.845764 
	C96.780914,411.046234 98.749382,409.003845 105.610291,409.003174 
	C162.240189,408.997589 218.870102,409.000000 276.000000,409.000000 
z"/>
<path fill="#FAB03C" opacity="1.000000" stroke="none" 
	d="
M292.266235,113.660934 
	C294.038818,115.984222 295.601196,118.001625 297.697052,120.707832 
	C289.135010,120.707832 281.438721,120.707832 273.284607,120.707832 
	C273.284607,134.182831 273.284607,147.235550 273.284607,160.642456 
	C262.450806,160.642456 252.065140,160.642456 241.216858,160.642456 
	C241.216858,147.748093 241.216858,134.694885 241.216858,121.055283 
	C232.937943,121.055283 225.091904,121.055283 216.168961,121.055283 
	C230.033829,101.654327 243.246613,83.165794 257.070770,63.821789 
	C269.114166,80.873207 280.585083,97.114128 292.266235,113.660934 
z"/>
<path fill="#FAB03C" opacity="1.000000" stroke="none" 
	d="
M283.000000,441.000000 
	C306.477448,441.000000 329.454865,440.994598 352.432312,441.003510 
	C358.936249,441.006012 360.978424,442.908844 360.999939,448.902496 
	C361.021881,455.028717 359.017212,456.994568 352.615692,456.995331 
	C288.844971,457.002930 225.074265,457.003265 161.303558,456.994781 
	C154.986542,456.993958 152.963531,454.970886 153.000137,448.833374 
	C153.035873,442.845062 155.041336,441.003998 161.618668,441.003021 
	C201.912445,440.997040 242.206223,441.000000 283.000000,441.000000 
z"/>
<path fill="#FAB03C" opacity="1.000000" stroke="none" 
	d="
M332.002991,237.966492 
	C336.275940,230.307449 340.526947,223.039978 344.694916,215.725189 
	C347.741302,210.378708 352.320740,208.653900 357.316986,211.108032 
	C360.832275,212.834732 362.424774,219.318207 359.997650,223.826431 
	C355.928741,231.384064 351.552673,238.776978 347.271820,246.219635 
	C344.047852,251.824844 340.546295,257.283936 337.590240,263.025299 
	C335.341919,267.392120 330.549164,270.571716 324.603790,267.815125 
	C320.757446,266.031738 319.393005,260.527649 321.981445,255.550430 
	C325.037140,249.674728 328.601593,244.063599 332.002991,237.966492 
z"/>
<path fill="#FAB03C" opacity="1.000000" stroke="none" 
	d="
M83.187042,293.432800 
	C81.373703,289.066681 81.472946,284.576355 85.214821,282.685394 
	C88.229271,281.162048 93.256905,280.809357 96.141907,282.321350 
	C109.915039,289.539581 123.309029,297.490814 136.732635,305.360870 
	C140.957169,307.837646 142.159531,312.963165 140.002411,316.990936 
	C137.784088,321.132996 132.592194,322.775543 127.594154,320.076538 
	C118.048172,314.921509 108.716431,309.363220 99.375328,303.837830 
	C93.945572,300.626007 88.670425,297.152863 83.187042,293.432800 
z"/>
<path fill="#FAB03C" opacity="1.000000" stroke="none" 
	d="
M182.266174,238.652832 
	C185.736893,244.546494 189.176193,250.033249 192.199615,255.740311 
	C194.578430,260.230621 193.158295,265.828308 189.633713,267.760437 
	C184.880920,270.365845 179.850510,268.642853 176.910614,263.575165 
	C169.671539,251.096756 162.262146,238.715637 155.166458,226.156830 
	C153.763687,223.674072 152.976532,220.607956 152.757706,217.745697 
	C152.408417,213.176880 155.833160,210.499847 159.612350,210.425644 
	C162.560898,210.367767 166.784164,212.000061 168.310516,214.296997 
	C173.408417,221.968582 177.548477,230.276657 182.266174,238.652832 
z"/>
<path fill="#FAB03C" opacity="1.000000" stroke="none" 
	d="
M424.315338,298.274780 
	C412.428925,305.305054 401.017761,312.432220 389.167053,318.732635 
	C385.779907,320.533386 380.609528,321.362000 377.154755,320.126190 
	C371.136200,317.973358 371.564301,308.787628 377.547333,305.260590 
	C390.814026,297.439728 404.151337,289.732819 417.590546,282.213043 
	C423.819214,278.727875 430.097076,281.219574 431.714508,287.335419 
	C432.853821,291.643433 430.436829,295.298157 424.315338,298.274780 
z"/>
<path fill="#FAB03C" opacity="1.000000" stroke="none" 
	d="
M256.994324,185.000122 
	C263.359406,185.494095 264.979462,187.124023 264.989838,192.882431 
	C265.018951,209.017975 265.023560,225.153656 264.987183,241.289169 
	C264.974243,247.016937 262.726257,249.053406 256.741180,248.999893 
	C251.163651,248.950027 249.024643,246.882477 249.012512,241.282257 
	C248.977554,225.146744 248.980743,209.011063 249.010376,192.875519 
	C249.020981,187.093124 250.603500,185.502029 256.994324,185.000122 
z"/>
</svg>