<svg version="1.1" id="Layer_1" xmlns="http://www.w3.org/2000/svg" xmlns:xlink="http://www.w3.org/1999/xlink" x="0px" y="0px"
	 width="100%" viewBox="0 0 512 512" enable-background="new 0 0 512 512" xml:space="preserve">
<path fill="#000000" opacity="1.000000" stroke="none" 
	d="
M1.000006,349.000000 
	C1.000000,233.041321 1.000000,117.082649 1.000000,1.061989 
	C171.564514,1.061989 342.129059,1.061989 513.000000,1.061989 
	C513.000000,116.689812 513.000000,232.379898 512.733521,348.857452 
	C506.933411,339.548859 497.927002,337.853455 487.254761,337.866730 
	C332.304474,338.059631 177.353912,337.999054 22.403404,337.999054 
	C21.237110,337.999054 20.057079,337.882721 18.906786,338.018463 
	C12.171650,338.813019 6.364391,341.135773 3.049537,347.644165 
	C2.726043,348.279297 1.699961,348.556610 1.000006,349.000000 
M343.059296,92.047516 
	C343.059296,92.047516 343.068024,92.126617 343.719482,92.008423 
	C344.530487,91.355415 345.341492,90.702408 346.604980,89.935173 
	C346.896881,89.756020 347.045074,89.495209 347.675598,88.842613 
	C348.136536,88.364510 348.710144,87.953682 349.041656,87.398315 
	C355.009460,77.401123 361.401154,67.619644 366.718597,57.285896 
	C369.780701,51.335056 369.971161,44.596687 364.933502,38.396896 
	C364.753693,38.103962 364.491943,37.955799 364.023926,37.246655 
	C363.364716,36.782566 362.705505,36.318481 361.933655,35.399601 
	C361.754303,35.105469 361.492371,34.957458 360.943756,34.469147 
	C360.640228,34.362141 360.336700,34.255138 359.431488,33.884972 
	C358.663788,33.575657 357.896118,33.266342 356.659271,32.228405 
	C346.670715,30.551043 339.207397,33.780029 334.376648,43.037613 
	C330.269989,50.907562 325.911224,58.666840 321.256836,66.224342 
	C316.361938,74.172340 317.297119,81.583054 322.239746,89.684242 
	C324.791687,90.799446 327.343658,91.914658 330.063721,93.526138 
	C330.364319,93.631409 330.664886,93.736679 331.850189,93.997215 
	C334.241821,93.950005 336.633423,93.902794 339.556427,93.896072 
	C339.755676,93.611290 339.954926,93.326508 340.784210,93.032906 
	C341.197662,92.974098 341.611084,92.915291 342.552460,92.899963 
	C342.747925,92.615601 342.943390,92.331245 343.059296,92.047516 
M139.010101,279.987640 
	C139.010101,279.987640 139.076889,279.950348 139.002060,279.229004 
	C135.207260,269.483765 124.271263,267.272980 115.738823,271.335999 
	C105.544502,276.190399 95.850044,282.219727 86.353859,288.379547 
	C76.980179,294.459900 76.055702,307.993408 84.247459,315.769257 
	C89.553825,319.426697 95.447929,322.004425 101.542389,318.868378 
	C112.429367,313.266235 123.300385,307.473145 133.481247,300.710815 
	C141.214493,295.574219 142.576843,288.963287 139.915390,280.471436 
	C139.625015,280.287354 139.334625,280.103271 139.010101,279.987640 
M254.678329,72.987976 
	C265.826385,74.758385 275.184631,65.298012 274.167816,53.650280 
	C273.345642,44.232101 273.426636,34.640560 274.155518,25.206930 
	C274.954163,14.870454 265.775024,4.656580 254.198959,7.049309 
	C246.455170,7.793899 240.096222,14.554747 240.025177,22.398062 
	C239.925903,33.357307 239.998978,44.318127 240.000336,55.278271 
	C240.001526,64.982048 244.321060,70.430901 254.678329,72.987976 
M394.022522,208.851990 
	C393.932312,220.500443 400.428864,227.009232 412.136841,227.005905 
	C421.790436,227.003174 431.457794,226.681168 441.094025,227.090042 
	C452.278076,227.564590 461.795685,219.379303 459.945770,206.235718 
	C457.836548,198.917023 453.657318,193.384079 445.578522,193.111221 
	C433.115601,192.690323 420.627289,192.920547 408.151123,193.031265 
	C401.119568,193.093658 394.096771,200.771103 394.022522,208.851990 
M54.027714,213.749207 
	C56.513317,221.277527 61.336376,226.550446 69.490929,226.879562 
	C81.074539,227.347076 92.699509,227.265045 104.290344,226.897964 
	C111.102036,226.682236 120.245171,221.318542 119.978470,211.147659 
	C120.066086,199.059784 114.072014,192.999252 102.031937,193.000031 
	C91.063957,193.000732 80.095627,192.955719 69.128372,193.045059 
	C67.390373,193.059219 65.514793,193.360718 63.947037,194.069534 
	C57.767532,196.863388 52.652065,202.866592 54.027714,213.749207 
M429.761017,104.239166 
	C425.553497,98.759781 413.861389,98.953354 408.802582,101.979729 
	C400.196259,107.128342 391.427887,112.005417 382.753021,117.040359 
	C374.531097,121.812439 370.930603,130.657562 374.022736,138.712646 
	C376.498230,149.252975 390.472260,152.724228 398.394653,148.158920 
	C408.365906,142.412964 418.470703,136.887482 428.294250,130.899979 
	C436.530548,125.879913 437.906891,110.063103 429.761017,104.239166 
M377.297424,275.181335 
	C370.368652,281.314117 371.437500,296.853058 382.170319,302.088440 
	C385.936615,303.925629 389.343933,306.484253 393.036957,308.489197 
	C399.986389,312.262024 406.827545,316.336304 414.084381,319.410217 
	C420.499756,322.127716 432.641113,317.448517 434.835327,307.583160 
	C436.535217,298.189728 433.112366,291.226318 424.897217,286.487091 
	C416.182007,281.459381 407.662079,276.058716 398.732605,271.448975 
	C392.841400,268.407684 382.287994,268.532684 377.297424,275.181335 
M185.711090,92.983734 
	C188.470856,91.077599 191.969925,89.712288 193.840271,87.155525 
	C198.054916,81.394112 198.623795,74.831665 195.051376,68.363701 
	C189.737137,58.742126 184.431427,49.111183 178.870010,39.632103 
	C173.369141,30.256224 158.468338,29.330187 152.268295,36.239697 
	C146.420944,42.074184 145.059906,49.359306 149.003311,56.708134 
	C154.195480,66.384163 159.378250,76.101006 165.258881,85.359627 
	C169.388275,91.861046 176.249435,96.080688 185.711090,92.983734 
M79.162621,111.408501 
	C78.071007,120.107719 79.616287,127.674149 87.991859,132.422012 
	C97.137871,137.606628 106.269646,142.817322 115.364273,148.091385 
	C122.386154,152.163452 134.802017,149.745880 137.769928,142.750076 
	C143.466705,134.023422 141.713058,124.018600 133.036194,118.595573 
	C123.406769,112.577217 113.729828,106.540886 103.609589,101.431419 
	C95.415810,97.294586 83.495705,99.904495 79.162621,111.408501 
M169.000595,287.740082 
	C169.430725,288.412872 169.764679,289.177216 170.305099,289.745056 
	C182.829025,302.904999 197.360153,313.262726 214.397552,319.604492 
	C226.124969,323.969757 238.256195,327.172638 251.923615,326.980530 
	C272.411804,328.154419 291.871674,324.048431 310.159668,314.916748 
	C325.447968,307.282837 338.960815,296.990173 349.011810,283.150513 
	C355.610046,274.065094 361.293121,264.072205 365.854858,253.805405 
	C373.429810,236.756882 376.130585,218.560425 373.891937,199.946991 
	C372.880554,191.537460 370.703278,183.268158 368.973633,174.163498 
	C364.377167,158.895920 356.876099,145.084503 346.455292,133.155411 
	C334.735718,119.739594 320.846527,108.980331 304.180969,101.998451 
	C279.643280,91.718605 254.598190,89.381897 228.664673,95.675179 
	C204.235458,101.603416 184.025635,114.369362 167.592224,133.073624 
	C160.103195,141.597534 153.843933,151.123001 149.254593,162.277145 
	C142.062897,179.742401 138.706589,197.709869 139.773651,216.778168 
	C140.521255,230.137802 143.284851,242.912552 148.237518,255.009354 
	C153.063538,266.796814 159.193222,278.186920 169.000595,287.740082 
z"/>
<path fill="#000000" opacity="1.000000" stroke="none" 
	d="
M513.000000,366.000000 
	C513.000000,414.973389 513.000000,463.946777 513.000000,512.960083 
	C342.452637,512.960083 171.905273,512.960083 1.000000,512.960083 
	C1.000000,464.313019 1.000000,415.625183 1.269660,366.149902 
	C2.642700,366.734344 3.758348,368.096619 4.847066,369.480042 
	C7.685594,373.086945 10.813584,376.196625 16.114361,376.415405 
	C17.169058,376.859436 17.994991,376.991577 18.820934,376.991638 
	C177.235504,377.000793 335.650055,377.002991 494.064636,376.960907 
	C495.416565,376.960541 496.768402,376.359344 498.506714,376.022461 
	C501.244080,374.860718 503.809509,374.009979 505.891357,372.494781 
	C508.470428,370.617737 510.648651,368.189911 513.000000,366.000000 
M276.995453,495.991516 
	C276.995453,495.991516 277.006042,496.054352 277.650726,495.847107 
	C296.128906,477.366364 314.616486,458.894928 333.064606,440.384186 
	C334.315033,439.129547 335.489258,437.697571 336.323975,436.146301 
	C341.906982,425.770447 339.189209,412.969818 329.773468,406.378326 
	C320.709259,400.032898 308.574768,400.706757 300.171875,409.237671 
	C285.931610,423.694946 271.406799,437.871948 256.376953,451.888031 
	C242.011734,437.519745 227.535385,423.260223 213.323288,408.742065 
	C204.911148,400.148773 190.216583,400.279419 181.106750,409.083435 
	C173.318008,416.610687 173.285431,433.347473 181.208847,440.961914 
	C200.779388,459.769287 220.255615,478.733856 238.718079,498.612000 
	C248.903397,509.578247 267.470490,510.131378 276.483032,496.978607 
	C276.675079,496.649109 276.867126,496.319641 276.995453,495.991516 
z"/>
<path fill="#67E1FF" opacity="1.000000" stroke="none" 
	d="
M1.000006,349.375000 
	C1.699961,348.556610 2.726043,348.279297 3.049537,347.644165 
	C6.364391,341.135773 12.171650,338.813019 18.906786,338.018463 
	C20.057079,337.882721 21.237110,337.999054 22.403404,337.999054 
	C177.353912,337.999054 332.304474,338.059631 487.254761,337.866730 
	C497.927002,337.853455 506.933411,339.548859 512.733521,349.322449 
	C513.000000,349.750000 513.000000,350.500000 512.710083,351.796997 
	C507.039856,362.480377 498.195709,364.976288 487.347260,364.965363 
	C333.724915,364.810547 180.102325,364.859985 26.479818,364.859589 
	C24.813641,364.859589 23.143295,364.929871 21.481995,364.838409 
	C13.524539,364.400269 6.903100,361.646698 2.985900,354.154266 
	C2.548954,353.318542 1.672589,352.712524 1.000002,352.000000 
	C1.000000,351.250000 1.000000,350.500000 1.000006,349.375000 
z"/>
<path fill="#00C1FF" opacity="1.000000" stroke="none" 
	d="
M1.000002,352.464661 
	C1.672589,352.712524 2.548954,353.318542 2.985900,354.154266 
	C6.903100,361.646698 13.524539,364.400269 21.481995,364.838409 
	C23.143295,364.929871 24.813641,364.859589 26.479818,364.859589 
	C180.102325,364.859985 333.724915,364.810547 487.347260,364.965363 
	C498.195709,364.976288 507.039856,362.480377 512.710083,352.171997 
	C513.000000,356.356903 513.000000,360.713806 513.000000,365.535339 
	C510.648651,368.189911 508.470428,370.617737 505.891357,372.494781 
	C503.809509,374.009979 501.244080,374.860718 498.031616,376.008942 
	C450.357697,376.008057 403.545288,375.998016 356.732880,376.002045 
	C243.117126,376.011841 129.501358,376.028168 15.885603,376.041840 
	C10.813584,376.196625 7.685594,373.086945 4.847066,369.480042 
	C3.758348,368.096619 2.642700,366.734344 1.269660,365.681213 
	C1.000000,361.643097 1.000000,357.286194 1.000002,352.464661 
z"/>
<path fill="#FFBD2B" opacity="1.000000" stroke="none" 
	d="
M369.054962,174.935226 
	C370.703278,183.268158 372.880554,191.537460 373.891937,199.946991 
	C376.130585,218.560425 373.429810,236.756882 365.854858,253.805405 
	C361.293121,264.072205 355.610046,274.065094 349.011810,283.150513 
	C338.960815,296.990173 325.447968,307.282837 310.159668,314.916748 
	C291.871674,324.048431 272.411804,328.154419 251.477356,326.545044 
	C257.218689,313.066559 261.876068,299.745331 259.002350,284.928192 
	C257.052826,274.876312 253.183228,265.774536 245.148193,259.155212 
	C226.317841,243.642639 202.797150,249.740311 186.966003,263.484680 
	C179.309952,270.131531 173.824249,278.355164 168.890717,287.045166 
	C159.193222,278.186920 153.063538,266.796814 148.237518,255.009354 
	C143.284851,242.912552 140.521255,230.137802 139.773651,216.778168 
	C138.706589,197.709869 142.062897,179.742401 149.844055,162.329193 
	C158.913574,175.446671 168.924637,187.187332 181.271957,196.729279 
	C200.780304,211.805252 222.199158,217.098907 246.344955,209.455612 
	C275.499573,200.226807 304.719055,191.181976 334.072540,182.612686 
	C345.506012,179.274841 357.381042,177.449509 369.054962,174.935226 
z"/>
<path fill="#FFE232" opacity="1.000000" stroke="none" 
	d="
M369.014282,174.549362 
	C357.381042,177.449509 345.506012,179.274841 334.072540,182.612686 
	C304.719055,191.181976 275.499573,200.226807 246.344955,209.455612 
	C222.199158,217.098907 200.780304,211.805252 181.271957,196.729279 
	C168.924637,187.187332 158.913574,175.446671 150.172226,162.164093 
	C153.843933,151.123001 160.103195,141.597534 167.592224,133.073624 
	C184.025635,114.369362 204.235458,101.603416 228.664673,95.675179 
	C254.598190,89.381897 279.643280,91.718605 304.180969,101.998451 
	C320.846527,108.980331 334.735718,119.739594 346.455292,133.155411 
	C356.876099,145.084503 364.377167,158.895920 369.014282,174.549362 
M271.691559,118.933411 
	C259.820953,123.735962 256.582886,133.181534 263.058899,144.115189 
	C270.529724,156.728409 289.397888,163.821579 303.513519,159.323425 
	C315.863464,155.387939 319.919037,143.105026 312.135864,132.793640 
	C303.560272,121.432449 287.370636,113.972076 271.691559,118.933411 
z"/>
<path fill="#FEC52D" opacity="1.000000" stroke="none" 
	d="
M168.945648,287.392639 
	C173.824249,278.355164 179.309952,270.131531 186.966003,263.484680 
	C202.797150,249.740311 226.317841,243.642639 245.148193,259.155212 
	C253.183228,265.774536 257.052826,274.876312 259.002350,284.928192 
	C261.876068,299.745331 257.218689,313.066559 251.013870,326.470886 
	C238.256195,327.172638 226.124969,323.969757 214.397552,319.604492 
	C197.360153,313.262726 182.829025,302.904999 170.305099,289.745056 
	C169.764679,289.177216 169.430725,288.412872 168.945648,287.392639 
z"/>
<path fill="#FFBD2B" opacity="1.000000" stroke="none" 
	d="
M137.097885,143.033264 
	C134.802017,149.745880 122.386154,152.163452 115.364273,148.091385 
	C106.269646,142.817322 97.137871,137.606628 87.991859,132.422012 
	C79.616287,127.674149 78.071007,120.107719 79.892853,111.141228 
	C87.388031,107.152763 94.185173,105.860695 101.283966,110.156677 
	C107.383163,113.847740 113.564926,117.407677 119.783440,120.894958 
	C128.354126,125.701324 136.646332,130.653397 136.502396,142.262299 
	C136.499252,142.516785 136.890579,142.776169 137.097885,143.033264 
z"/>
<path fill="#FFBD2B" opacity="1.000000" stroke="none" 
	d="
M139.827759,281.000488 
	C142.576843,288.963287 141.214493,295.574219 133.481247,300.710815 
	C123.300385,307.473145 112.429367,313.266235 101.542389,318.868378 
	C95.447929,322.004425 89.553825,319.426697 84.108177,314.982910 
	C82.647987,304.311249 86.727676,297.706116 95.712311,293.427094 
	C101.849113,290.504425 107.730850,286.944244 113.412971,283.193878 
	C121.044815,278.156616 128.710388,275.112640 137.592438,279.874817 
	C137.987259,280.086517 138.577606,279.933502 139.076889,279.950348 
	C139.076889,279.950348 139.010101,279.987640 139.108032,280.165741 
	C139.369705,280.603912 139.576981,280.822815 139.827759,281.000488 
z"/>
<path fill="#FFBD2B" opacity="1.000000" stroke="none" 
	d="
M184.986023,92.843994 
	C176.249435,96.080688 169.388275,91.861046 165.258881,85.359627 
	C159.378250,76.101006 154.195480,66.384163 149.003311,56.708134 
	C145.059906,49.359306 146.420944,42.074184 153.021149,36.109528 
	C161.574203,35.705173 167.699051,38.635773 171.669556,45.501575 
	C175.994644,52.980507 179.818695,60.787899 184.620773,67.942238 
	C190.306564,76.413193 190.683731,84.455963 184.986023,92.843994 
z"/>
<path fill="#FFBD2B" opacity="1.000000" stroke="none" 
	d="
M377.945984,274.876587 
	C382.287994,268.532684 392.841400,268.407684 398.732605,271.448975 
	C407.662079,276.058716 416.182007,281.459381 424.897217,286.487091 
	C433.112366,291.226318 436.535217,298.189728 434.115723,307.862366 
	C426.927338,312.100952 420.320953,313.717987 413.258698,309.543488 
	C407.263458,305.999725 401.265717,302.453583 395.170502,299.087036 
	C385.518677,293.756042 375.842804,288.532593 377.945984,274.876587 
z"/>
<path fill="#FFBD2B" opacity="1.000000" stroke="none" 
	d="
M374.162506,137.985413 
	C370.930603,130.657562 374.531097,121.812439 382.753021,117.040359 
	C391.427887,112.005417 400.196259,107.128342 408.802582,101.979729 
	C413.861389,98.953354 425.553497,98.759781 429.896210,105.016617 
	C431.208557,115.250465 427.110260,121.624573 418.778656,125.873688 
	C413.625854,128.501602 408.694153,131.584793 403.772980,134.640335 
	C394.403778,140.457642 385.067291,145.998383 374.162506,137.985413 
z"/>
<path fill="#FFBD2B" opacity="1.000000" stroke="none" 
	d="
M119.817757,212.016678 
	C120.245171,221.318542 111.102036,226.682236 104.290344,226.897964 
	C92.699509,227.265045 81.074539,227.347076 69.490929,226.879562 
	C61.336376,226.550446 56.513317,221.277527 54.415672,213.279297 
	C59.033916,204.056091 66.131020,201.111099 75.555153,201.897568 
	C81.653648,202.406494 87.840607,202.232956 93.967468,201.938965 
	C103.982025,201.458435 113.675125,201.411133 119.353607,211.866730 
	C119.409805,211.970215 119.658775,211.969009 119.817757,212.016678 
z"/>
<path fill="#FFBD2B" opacity="1.000000" stroke="none" 
	d="
M394.185486,207.983490 
	C394.096771,200.771103 401.119568,193.093658 408.151123,193.031265 
	C420.627289,192.920547 433.115601,192.690323 445.578522,193.111221 
	C453.657318,193.384079 457.836548,198.917023 459.568298,206.704773 
	C453.946381,216.404633 445.800995,218.886627 435.678955,218.122833 
	C427.602722,217.513412 419.440613,218.139099 411.322815,217.950607 
	C405.464600,217.814590 400.272919,216.050568 396.996399,210.592804 
	C396.364349,209.539978 395.137787,208.844055 394.185486,207.983490 
z"/>
<path fill="#FFBD2B" opacity="1.000000" stroke="none" 
	d="
M253.908569,72.828186 
	C244.321060,70.430901 240.001526,64.982048 240.000336,55.278271 
	C239.998978,44.318127 239.925903,33.357307 240.025177,22.398062 
	C240.096222,14.554747 246.455170,7.793899 254.683960,7.433348 
	C263.874725,13.202479 265.805542,21.293468 265.113098,30.915104 
	C264.554749,38.673588 264.794861,46.511257 265.059021,54.300964 
	C265.311554,61.748035 261.921936,66.922646 256.007172,70.878586 
	C255.223526,71.402702 254.604065,72.172287 253.908569,72.828186 
z"/>
<path fill="#FFBD2B" opacity="1.000000" stroke="none" 
	d="
M322.179413,88.982254 
	C317.297119,81.583054 316.361938,74.172340 321.256836,66.224342 
	C325.911224,58.666840 330.269989,50.907562 334.376648,43.037613 
	C339.207397,33.780029 346.670715,30.551043 356.618500,32.648232 
	C356.435333,33.590134 355.998108,34.301178 356.193817,34.606583 
	C360.797333,41.789631 359.711365,48.778503 355.641815,55.726063 
	C351.362427,63.031773 346.859192,70.222656 342.934418,77.715492 
	C338.447418,86.281731 331.692902,90.006241 322.179413,88.982254 
z"/>
<path fill="#ECAF2A" opacity="1.000000" stroke="none" 
	d="
M374.092621,138.349030 
	C385.067291,145.998383 394.403778,140.457642 403.772980,134.640335 
	C408.694153,131.584793 413.625854,128.501602 418.778656,125.873688 
	C427.110260,121.624573 431.208557,115.250465 430.042938,105.334694 
	C437.906891,110.063103 436.530548,125.879913 428.294250,130.899979 
	C418.470703,136.887482 408.365906,142.412964 398.394653,148.158920 
	C390.472260,152.724228 376.498230,149.252975 374.092621,138.349030 
z"/>
<path fill="#ECAF2A" opacity="1.000000" stroke="none" 
	d="
M377.621704,275.028961 
	C375.842804,288.532593 385.518677,293.756042 395.170502,299.087036 
	C401.265717,302.453583 407.263458,305.999725 413.258698,309.543488 
	C420.320953,313.717987 426.927338,312.100952 433.760071,308.097778 
	C432.641113,317.448517 420.499756,322.127716 414.084381,319.410217 
	C406.827545,316.336304 399.986389,312.262024 393.036957,308.489197 
	C389.343933,306.484253 385.936615,303.925629 382.170319,302.088440 
	C371.437500,296.853058 370.368652,281.314117 377.621704,275.028961 
z"/>
<path fill="#ECAF2A" opacity="1.000000" stroke="none" 
	d="
M139.039474,279.589661 
	C138.577606,279.933502 137.987259,280.086517 137.592438,279.874817 
	C128.710388,275.112640 121.044815,278.156616 113.412971,283.193878 
	C107.730850,286.944244 101.849113,290.504425 95.712311,293.427094 
	C86.727676,297.706116 82.647987,304.311249 83.957199,314.660645 
	C76.055702,307.993408 76.980179,294.459900 86.353859,288.379547 
	C95.850044,282.219727 105.544502,276.190399 115.738823,271.335999 
	C124.271263,267.272980 135.207260,269.483765 139.039474,279.589661 
z"/>
<path fill="#ECAF2A" opacity="1.000000" stroke="none" 
	d="
M185.348557,92.913864 
	C190.683731,84.455963 190.306564,76.413193 184.620773,67.942238 
	C179.818695,60.787899 175.994644,52.980507 171.669556,45.501575 
	C167.699051,38.635773 161.574203,35.705173 153.335144,35.967445 
	C158.468338,29.330187 173.369141,30.256224 178.870010,39.632103 
	C184.431427,49.111183 189.737137,58.742126 195.051376,68.363701 
	C198.623795,74.831665 198.054916,81.394112 193.840271,87.155525 
	C191.969925,89.712288 188.470856,91.077599 185.348557,92.913864 
z"/>
<path fill="#ECAF2A" opacity="1.000000" stroke="none" 
	d="
M254.293457,72.908081 
	C254.604065,72.172287 255.223526,71.402702 256.007172,70.878586 
	C261.921936,66.922646 265.311554,61.748035 265.059021,54.300964 
	C264.794861,46.511257 264.554749,38.673588 265.113098,30.915104 
	C265.805542,21.293468 263.874725,13.202479 255.076111,7.501287 
	C265.775024,4.656580 274.954163,14.870454 274.155518,25.206930 
	C273.426636,34.640560 273.345642,44.232101 274.167816,53.650280 
	C275.184631,65.298012 265.826385,74.758385 254.293457,72.908081 
z"/>
<path fill="#ECAF2A" opacity="1.000000" stroke="none" 
	d="
M137.433899,142.891663 
	C136.890579,142.776169 136.499252,142.516785 136.502396,142.262299 
	C136.646332,130.653397 128.354126,125.701324 119.783440,120.894958 
	C113.564926,117.407677 107.383163,113.847740 101.283966,110.156677 
	C94.185173,105.860695 87.388031,107.152763 80.253487,110.911652 
	C83.495705,99.904495 95.415810,97.294586 103.609589,101.431419 
	C113.729828,106.540886 123.406769,112.577217 133.036194,118.595573 
	C141.713058,124.018600 143.466705,134.023422 137.433899,142.891663 
z"/>
<path fill="#ECAF2A" opacity="1.000000" stroke="none" 
	d="
M394.104004,208.417755 
	C395.137787,208.844055 396.364349,209.539978 396.996399,210.592804 
	C400.272919,216.050568 405.464600,217.814590 411.322815,217.950607 
	C419.440613,218.139099 427.602722,217.513412 435.678955,218.122833 
	C445.800995,218.886627 453.946381,216.404633 459.507355,207.079163 
	C461.795685,219.379303 452.278076,227.564590 441.094025,227.090042 
	C431.457794,226.681168 421.790436,227.003174 412.136841,227.005905 
	C400.428864,227.009232 393.932312,220.500443 394.104004,208.417755 
z"/>
<path fill="#ECAF2A" opacity="1.000000" stroke="none" 
	d="
M119.898117,211.582169 
	C119.658775,211.969009 119.409805,211.970215 119.353607,211.866730 
	C113.675125,201.411133 103.982025,201.458435 93.967468,201.938965 
	C87.840607,202.232956 81.653648,202.406494 75.555153,201.897568 
	C66.131020,201.111099 59.033916,204.056091 54.489029,212.912369 
	C52.652065,202.866592 57.767532,196.863388 63.947037,194.069534 
	C65.514793,193.360718 67.390373,193.059219 69.128372,193.045059 
	C80.095627,192.955719 91.063957,193.000732 102.031937,193.000031 
	C114.072014,192.999252 120.066086,199.059784 119.898117,211.582169 
z"/>
<path fill="#ECAF2A" opacity="1.000000" stroke="none" 
	d="
M322.209595,89.333252 
	C331.692902,90.006241 338.447418,86.281731 342.934418,77.715492 
	C346.859192,70.222656 351.362427,63.031773 355.641815,55.726063 
	C359.711365,48.778503 360.797333,41.789631 356.193817,34.606583 
	C355.998108,34.301178 356.435333,33.590134 356.853088,33.012547 
	C357.896118,33.266342 358.663788,33.575657 359.885437,34.191612 
	C360.589172,34.685574 360.858673,34.838009 361.147888,34.955563 
	C361.492371,34.957458 361.754303,35.105469 362.045593,35.955154 
	C362.821106,36.991276 363.484650,37.471844 364.148224,37.952408 
	C364.491943,37.955799 364.753693,38.103962 364.991150,39.033752 
	C368.054810,47.622498 366.673035,54.717922 361.804901,61.713943 
	C357.935699,67.274414 354.975677,73.477638 351.739624,79.464485 
	C350.035278,82.617683 348.604156,85.918564 347.049622,89.152756 
	C347.045074,89.495209 346.896881,89.756020 346.017578,89.990601 
	C344.642822,90.739555 343.855408,91.433083 343.068024,92.126617 
	C343.068024,92.126617 343.059296,92.047516 342.887543,92.146606 
	C342.428070,92.384415 342.197632,92.587997 342.024536,92.856476 
	C341.611084,92.915291 341.197662,92.974098 340.257080,93.139435 
	C339.439240,93.384720 339.204285,93.587921 339.025055,93.855583 
	C336.633423,93.902794 334.241821,93.950005 331.260101,93.747795 
	C330.430237,93.311844 330.172089,93.155670 329.895599,93.029861 
	C327.343658,91.914658 324.791687,90.799446 322.209595,89.333252 
z"/>
<path fill="#FEBE2A" opacity="1.000000" stroke="none" 
	d="
M347.362610,88.997688 
	C348.604156,85.918564 350.035278,82.617683 351.739624,79.464485 
	C354.975677,73.477638 357.935699,67.274414 361.804901,61.713943 
	C366.673035,54.717922 368.054810,47.622498 365.048462,39.260674 
	C369.971161,44.596687 369.780701,51.335056 366.718597,57.285896 
	C361.401154,67.619644 355.009460,77.401123 349.041656,87.398315 
	C348.710144,87.953682 348.136536,88.364510 347.362610,88.997688 
z"/>
<path fill="#FEBE2A" opacity="1.000000" stroke="none" 
	d="
M343.393738,92.067520 
	C343.855408,91.433083 344.642822,90.739555 345.791321,90.047714 
	C345.341492,90.702408 344.530487,91.355415 343.393738,92.067520 
z"/>
<path fill="#FEBE2A" opacity="1.000000" stroke="none" 
	d="
M364.086060,37.599533 
	C363.484650,37.471844 362.821106,36.991276 362.101929,36.182552 
	C362.705505,36.318481 363.364716,36.782566 364.086060,37.599533 
z"/>
<path fill="#ECAF2A" opacity="1.000000" stroke="none" 
	d="
M139.871582,280.735962 
	C139.576981,280.822815 139.369705,280.603912 139.125092,280.131531 
	C139.334625,280.103271 139.625015,280.287354 139.871582,280.735962 
z"/>
<path fill="#FEBE2A" opacity="1.000000" stroke="none" 
	d="
M361.045837,34.712357 
	C360.858673,34.838009 360.589172,34.685574 360.186279,34.323196 
	C360.336700,34.255138 360.640228,34.362141 361.045837,34.712357 
z"/>
<path fill="#FEBE2A" opacity="1.000000" stroke="none" 
	d="
M339.290741,93.875824 
	C339.204285,93.587921 339.439240,93.384720 339.942047,93.143845 
	C339.954926,93.326508 339.755676,93.611290 339.290741,93.875824 
z"/>
<path fill="#FEBE2A" opacity="1.000000" stroke="none" 
	d="
M329.979675,93.278000 
	C330.172089,93.155670 330.430237,93.311844 330.817749,93.670166 
	C330.664886,93.736679 330.364319,93.631409 329.979675,93.278000 
z"/>
<path fill="#FEBE2A" opacity="1.000000" stroke="none" 
	d="
M342.288513,92.878220 
	C342.197632,92.587997 342.428070,92.384415 342.927307,92.146294 
	C342.943390,92.331245 342.747925,92.615601 342.288513,92.878220 
z"/>
<path fill="#69E1FF" opacity="1.000000" stroke="none" 
	d="
M275.942749,497.231445 
	C267.470490,510.131378 248.903397,509.578247 238.718079,498.612000 
	C220.255615,478.733856 200.779388,459.769287 181.208847,440.961914 
	C173.285431,433.347473 173.318008,416.610687 181.106750,409.083435 
	C190.216583,400.279419 204.911148,400.148773 213.323288,408.742065 
	C227.535385,423.260223 242.011734,437.519745 256.825562,452.324493 
	C261.791809,457.360657 266.268036,462.001953 270.837372,466.549713 
	C276.787598,472.471710 280.169373,479.368225 278.956146,487.939697 
	C278.568024,490.681671 277.670502,493.351501 277.006042,496.054352 
	C277.006042,496.054352 276.995453,495.991516 276.747711,496.093353 
	C276.314209,496.540588 276.128479,496.886017 275.942749,497.231445 
z"/>
<path fill="#00C1FF" opacity="1.000000" stroke="none" 
	d="
M277.328369,495.950745 
	C277.670502,493.351501 278.568024,490.681671 278.956146,487.939697 
	C280.169373,479.368225 276.787598,472.471710 270.837372,466.549713 
	C266.268036,462.001953 261.791809,457.360657 257.137878,452.463837 
	C271.406799,437.871948 285.931610,423.694946 300.171875,409.237671 
	C308.574768,400.706757 320.709259,400.032898 329.773468,406.378326 
	C339.189209,412.969818 341.906982,425.770447 336.323975,436.146301 
	C335.489258,437.697571 334.315033,439.129547 333.064606,440.384186 
	C314.616486,458.894928 296.128906,477.366364 277.328369,495.950745 
z"/>
<path fill="#27CDFF" opacity="1.000000" stroke="none" 
	d="
M16.114361,376.415405 
	C129.501358,376.028168 243.117126,376.011841 356.732880,376.002045 
	C403.545288,375.998016 450.357697,376.008057 497.645203,376.025146 
	C496.768402,376.359344 495.416565,376.960541 494.064636,376.960907 
	C335.650055,377.002991 177.235504,377.000793 18.820934,376.991638 
	C17.994991,376.991577 17.169058,376.859436 16.114361,376.415405 
z"/>
<path fill="#00C1FF" opacity="1.000000" stroke="none" 
	d="
M276.212891,497.105042 
	C276.128479,496.886017 276.314209,496.540588 276.779572,496.092651 
	C276.867126,496.319641 276.675079,496.649109 276.212891,497.105042 
z"/>
<path fill="#FDEC73" opacity="1.000000" stroke="none" 
	d="
M272.071716,118.811661 
	C287.370636,113.972076 303.560272,121.432449 312.135864,132.793640 
	C319.919037,143.105026 315.863464,155.387939 303.513519,159.323425 
	C289.397888,163.821579 270.529724,156.728409 263.058899,144.115189 
	C256.582886,133.181534 259.820953,123.735962 272.071716,118.811661 
z"/>
</svg>